# xmcd CD database file
#
# Track frame offsets:
#	150
#	14452
#	34224
#	46932
#	61050
#	78407
#	90717
#	105268
#	120170
#	133302
#
# Disc length: 1987 seconds
#
# Revision: 0
# Processed by: cddbd v1.5.2PL0 Copyright (c) Steve Scherf et al.
# Submitted via: CDex 1.51
#
DISCID=7407c10a
DTITLE=Bobby Mackey - Johanna
DYEAR=0000
DGENRE=Country
TTITLE0=What's He Got
TTITLE1=Johanna
TTITLE2=Hellfire and Brimstone
TTITLE3=She Got Up
TTITLE4=Pillow Of A Fool
TTITLE5=Rock and Roll Money
TTITLE6=A Girl Like You
TTITLE7=Why Me
TTITLE8=I'll Give It To You Straight
TTITLE9=King Of The Mountain
EXTD=YEAR: 0000
EXTT0=
EXTT1=
EXTT2=
EXTT3=
EXTT4=
EXTT5=
EXTT6=
EXTT7=
EXTT8=
EXTT9=
PLAYORDER=
